<svg width="31" height="31" viewBox="0 0 31 31" fill="none" xmlns="http://www.w3.org/2000/svg">
<rect x="1" y="1" width="28.5455" height="28.5455" rx="14.2727" fill="#F8F8F8"/>
<rect x="1" y="1" width="28.5455" height="28.5455" rx="14.2727" stroke="white" stroke-width="2"/>
<path d="M16.1149 10.8988L10.6416 16.6922C10.4349 16.9122 10.2349 17.3455 10.1949 17.6455L9.94824 19.8055C9.86157 20.5855 10.4216 21.1188 11.1949 20.9855L13.3416 20.6188C13.6416 20.5655 14.0616 20.3455 14.2682 20.1188L19.7416 14.3255C20.6882 13.3255 21.1149 12.1855 19.6416 10.7922C18.1749 9.41218 17.0616 9.89884 16.1149 10.8988Z" stroke="#247CFF" stroke-miterlimit="10" stroke-linecap="round" stroke-linejoin="round"/>
<path d="M15.2024 11.8667C15.4891 13.7067 16.9824 15.1134 18.8357 15.3" stroke="#247CFF" stroke-miterlimit="10" stroke-linecap="round" stroke-linejoin="round"/>
</svg>
