<svg width="40" height="40" viewBox="0 0 40 40" fill="none" xmlns="http://www.w3.org/2000/svg">
<rect width="40" height="40" rx="9.99998" fill="#F1F1F1"/>
<path d="M14.51 33.983L15.0299 30.6804L13.8718 30.6536H8.3414L12.1847 6.28437C12.1967 6.21081 12.2354 6.14221 12.2921 6.0935C12.3488 6.04479 12.4213 6.01794 12.4969 6.01794H21.8219C24.9176 6.01794 27.054 6.66214 28.1694 7.93364C28.6923 8.53012 29.0254 9.15345 29.1864 9.8394C29.3554 10.5592 29.3584 11.4191 29.1934 12.4679L29.1814 12.5444V13.2165L29.7044 13.5127C30.1448 13.7463 30.4947 14.0138 30.7631 14.32C31.2105 14.83 31.4998 15.4781 31.622 16.2466C31.7483 17.0369 31.7065 17.9774 31.4998 19.0421C31.2612 20.2669 30.8755 21.3336 30.3545 22.2064C29.8754 23.0107 29.265 23.6778 28.5402 24.1947C27.8483 24.6858 27.0262 25.0586 26.0966 25.2972C25.196 25.5318 24.169 25.6501 23.0427 25.6501H22.3169C21.798 25.6501 21.294 25.837 20.8983 26.172C20.5017 26.514 20.2392 26.9813 20.1587 27.4922L20.104 27.7895L19.1854 33.6102L19.1437 33.8239C19.1327 33.8915 19.1138 33.9253 19.086 33.9482C19.0612 33.969 19.0254 33.983 18.9906 33.983H14.51V33.983Z" fill="#253B80"/>
<path d="M30.1997 12.6219V12.6219V12.6219C30.1718 12.7999 30.14 12.9818 30.1042 13.1687C28.8745 19.4825 24.6673 21.6636 19.294 21.6636H16.5582C15.901 21.6636 15.3473 22.1408 15.2449 22.789V22.789V22.789L13.8442 31.6726L13.4475 34.1907C13.3809 34.6162 13.709 34.9999 14.1384 34.9999H18.9908C19.5654 34.9999 20.0535 34.5824 20.144 34.0157L20.1917 33.7692L21.1053 27.9714L21.164 27.6533C21.2534 27.0846 21.7426 26.6671 22.3172 26.6671H23.0429C27.7442 26.6671 31.4244 24.7583 32.5001 19.2349C32.9494 16.9275 32.7168 15.0009 31.5278 13.6459C31.168 13.2373 30.7216 12.8983 30.1997 12.6219V12.6219Z" fill="#179BD7"/>
<path d="M28.913 12.1091C28.7251 12.0544 28.5313 12.0047 28.3324 11.96C28.1326 11.9163 27.9278 11.8775 27.7171 11.8437C26.9794 11.7244 26.1712 11.6677 25.3053 11.6677H17.9964C17.8165 11.6677 17.6455 11.7085 17.4924 11.7821C17.1554 11.9441 16.9048 12.2632 16.8442 12.6539L15.2894 22.5018L15.2446 22.7891C15.347 22.1409 15.9008 21.6637 16.5579 21.6637H19.2938C24.6671 21.6637 28.8742 19.4816 30.104 13.1689C30.1408 12.982 30.1716 12.8 30.1994 12.6221C29.8882 12.4571 29.5512 12.3159 29.1884 12.1956C29.0989 12.1658 29.0065 12.137 28.913 12.1091V12.1091Z" fill="#222D65"/>
<path d="M17.4926 11.783C17.6467 11.7094 17.8167 11.6687 17.9966 11.6687H25.3055C26.1714 11.6687 26.9796 11.7253 27.7173 11.8446C27.928 11.8784 28.1328 11.9172 28.3327 11.9609C28.5315 12.0057 28.7253 12.0554 28.9132 12.1101C29.0067 12.1379 29.0991 12.1667 29.1896 12.1955C29.5525 12.3158 29.8895 12.458 30.2006 12.622C30.5665 10.2888 30.1977 8.70017 28.9361 7.26166C27.5453 5.678 25.0351 5 21.8231 5H12.4981C11.842 5 11.2823 5.47718 11.1809 6.12635L7.29677 30.7461C7.22022 31.2332 7.596 31.6726 8.08711 31.6726H13.8441L15.2896 22.5017L16.8444 12.6538C16.9051 12.2631 17.1556 11.944 17.4926 11.783Z" fill="#253B80"/>
</svg>
