<svg width="18" height="18" viewBox="0 0 18 18" fill="none" xmlns="http://www.w3.org/2000/svg">
<path d="M10.9667 10.8584C10.4096 11.3076 9.71558 11.5525 9 11.5525C8.28442 11.5525 7.5904 11.3076 7.03333 10.8584C6.86315 10.717 6.64375 10.6489 6.4234 10.6692C6.20304 10.6895 5.99978 10.7966 5.85833 10.9667C5.71689 11.1369 5.64883 11.3563 5.66915 11.5767C5.68947 11.797 5.79649 12.0003 5.96667 12.1417C6.81778 12.8523 7.8913 13.2414 9 13.2414C10.1087 13.2414 11.1822 12.8523 12.0333 12.1417C12.2035 12.0003 12.3105 11.797 12.3309 11.5767C12.3512 11.3563 12.2831 11.1369 12.1417 10.9667C12.0716 10.8825 11.9857 10.8128 11.8887 10.7618C11.7918 10.7107 11.6857 10.6793 11.5766 10.6692C11.3562 10.6489 11.1368 10.717 10.9667 10.8584ZM6.5 8.16675C6.66482 8.16675 6.82594 8.11787 6.96298 8.02631C7.10002 7.93474 7.20683 7.80459 7.2699 7.65232C7.33297 7.50005 7.34948 7.33249 7.31732 7.17084C7.28517 7.00919 7.2058 6.8607 7.08926 6.74416C6.97271 6.62762 6.82423 6.54825 6.66258 6.51609C6.50093 6.48394 6.33337 6.50044 6.1811 6.56352C6.02883 6.62659 5.89868 6.7334 5.80711 6.87044C5.71554 7.00748 5.66667 7.1686 5.66667 7.33342C5.66667 7.55443 5.75447 7.76639 5.91075 7.92267C6.06703 8.07895 6.27899 8.16675 6.5 8.16675ZM11.5 6.50008C11.3352 6.50008 11.1741 6.54896 11.037 6.64052C10.9 6.73209 10.7932 6.86224 10.7301 7.01451C10.667 7.16678 10.6505 7.33434 10.6827 7.49599C10.7148 7.65764 10.7942 7.80613 10.9107 7.92267C11.0273 8.03921 11.1758 8.11858 11.3374 8.15074C11.4991 8.18289 11.6666 8.16639 11.8189 8.10331C11.9712 8.04024 12.1013 7.93343 12.1929 7.79639C12.2845 7.65935 12.3333 7.49823 12.3333 7.33342C12.3333 7.1124 12.2455 6.90044 12.0893 6.74416C11.933 6.58788 11.721 6.50008 11.5 6.50008ZM9 0.666748C7.35182 0.666748 5.74066 1.15549 4.37025 2.07117C2.99984 2.98685 1.93174 4.28834 1.30101 5.81105C0.670275 7.33377 0.505247 9.00933 0.826791 10.6258C1.14833 12.2423 1.94201 13.7272 3.10744 14.8926C4.27288 16.0581 5.75774 16.8517 7.37425 17.1733C8.99076 17.4948 10.6663 17.3298 12.189 16.6991C13.7117 16.0683 15.0132 15.0002 15.9289 13.6298C16.8446 12.2594 17.3333 10.6483 17.3333 9.00008C17.3333 7.90573 17.1178 6.8221 16.699 5.81105C16.2802 4.80001 15.6664 3.88135 14.8926 3.10752C14.1187 2.3337 13.2001 1.71987 12.189 1.30109C11.178 0.882296 10.0943 0.666748 9 0.666748ZM9 15.6667C7.68146 15.6667 6.39253 15.2758 5.2962 14.5432C4.19987 13.8107 3.34539 12.7695 2.8408 11.5513C2.33622 10.3331 2.2042 8.99269 2.46143 7.69948C2.71867 6.40627 3.35361 5.21839 4.28596 4.28604C5.21831 3.35369 6.40619 2.71875 7.6994 2.46151C8.99261 2.20428 10.333 2.3363 11.5512 2.84088C12.7694 3.34547 13.8106 4.19995 14.5431 5.29628C15.2757 6.39261 15.6667 7.68154 15.6667 9.00008C15.6667 10.7682 14.9643 12.4639 13.714 13.7141C12.4638 14.9644 10.7681 15.6667 9 15.6667Z" fill="#9E9E9E"/>
</svg>
